<svg xmlns="http://www.w3.org/2000/svg" viewBox="0 0 1200 630">
  <defs>
    <pattern id="grid" width="40" height="40" patternUnits="userSpaceOnUse">
      <path d="M40 0H0v40" fill="none" stroke="#e4d3bb" stroke-width="1"/>
      <path d="M0 20h40M20 0v40" stroke="#f0e3d0" stroke-width="1"/>
    </pattern>
    <filter id="shadow" x="-20%" y="-20%" width="140%" height="140%">
      <feDropShadow dx="0" dy="24" stdDeviation="20" flood-color="#321136" flood-opacity=".2"/>
    </filter>
  </defs>
  <rect width="1200" height="630" fill="#f7efe2"/>
  <rect width="1200" height="630" fill="url(#grid)" opacity=".78"/>
  <circle cx="1060" cy="70" r="250" fill="#321136" opacity=".14"/>
  <circle cx="120" cy="580" r="250" fill="#d98d12" opacity=".18"/>
  <g transform="translate(78 72)">
    <rect width="86" height="86" rx="22" fill="#321136"/>
    <path d="M22 28h35l13 11v29H33L16 58V36z" fill="#fffaf1"/>
    <path d="M31 37h14l8 6v18H38L27 51V39z" fill="#d98d12"/>
    <path d="M17 58h23l13 9H32z" fill="#321136"/>
  </g>
  <text x="190" y="132" fill="#321136" font-family="Inter, Arial, sans-serif" font-size="52" font-weight="900">Martenweave</text>
  <text x="80" y="254" fill="#321136" font-family="Inter, Arial, sans-serif" font-size="74" font-weight="900">AI-assisted MDM</text>
  <text x="80" y="337" fill="#321136" font-family="Inter, Arial, sans-serif" font-size="74" font-weight="900">model registry</text>
  <text x="82" y="420" fill="#574d59" font-family="Inter, Arial, sans-serif" font-size="33" font-weight="500">Validated model truth for SAP migration,</text>
  <text x="82" y="464" fill="#574d59" font-family="Inter, Arial, sans-serif" font-size="33" font-weight="500">MDM, governance, data quality, and AMS teams.</text>
  <g filter="url(#shadow)">
    <rect x="770" y="126" width="300" height="124" rx="14" fill="#fffaf1" stroke="#d7c3a6"/>
    <rect x="728" y="318" width="340" height="130" rx="14" fill="#321136"/>
    <rect x="838" y="494" width="250" height="76" rx="14" fill="#d98d12"/>
    <path d="M706 214C820 120 910 316 1115 232" fill="none" stroke="#321136" stroke-width="7" stroke-dasharray="14 12" stroke-linecap="round"/>
    <path d="M690 520C820 412 930 588 1120 471" fill="none" stroke="#d98d12" stroke-width="7" stroke-dasharray="14 12" stroke-linecap="round"/>
    <text x="804" y="178" fill="#d98d12" font-family="Inter, Arial, sans-serif" font-size="22" font-weight="900">AI proposes</text>
    <text x="766" y="377" fill="#fffaf1" font-family="Inter, Arial, sans-serif" font-size="24" font-weight="900">Validators verify</text>
    <text x="870" y="543" fill="#211726" font-family="Inter, Arial, sans-serif" font-size="24" font-weight="900">Humans approve</text>
  </g>
</svg>
